{"accessors":[{"bufferView":0,"byteOffset":0,"componentType":5126,"count":384,"max":[1.86563205718994,2.14094114303589,1.86563205718994],"min":[-1.86563205718994,-2.14094114303589,-1.86563205718994],"normalized":false,"type":"VEC3"},{"bufferView":1,"byteOffset":0,"componentType":5126,"count":384,"max":[0.990612268447876,0.0000641329243080691,0.990606546401978,1],"min":[-0.99061226844788,-0.00004275348692,-0.99060952663422,-1],"normalized":false,"type":"VEC4"},{"bufferView":2,"byteOffset":0,"componentType":5126,"count":384,"max":[0.990606904029846,1,0.990606606006622],"min":[-0.99060690402985,-1,-0.99060428142548],"normalized":false,"type":"VEC3"},{"bufferView":3,"byteOffset":0,"componentType":5126,"count":384,"max":[1,1],"min":[0,0],"normalized":false,"type":"VEC2"},{"bufferView":4,"byteOffset":0,"componentType":5123,"count":384,"max":[383],"min":[0],"normalized":false,"type":"SCALAR"}],"asset":{"generator":"Godot Engine v4.3.stable.mono.official@77dcf97d82cbfe4e4615475fa52ca03da645dbd8","version":"2.0"},"bufferViews":[{"buffer":0,"byteLength":4608,"byteOffset":0,"byteStride":12,"target":34962},{"buffer":0,"byteLength":6144,"byteOffset":4608,"byteStride":16,"target":34962},{"buffer":0,"byteLength":4608,"byteOffset":10752,"byteStride":12,"target":34962},{"buffer":0,"byteLength":3072,"byteOffset":15360,"byteStride":8,"target":34962},{"buffer":0,"byteLength":768,"byteOffset":18432,"target":34963}],"buffers":[{"byteLength":19200,"uri":"SpinningCylinder0.bin"}],"extensionsUsed":["GODOT_single_root"],"materials":[{"extensions":{},"pbrMetallicRoughness":{"baseColorFactor":[0.99999988079071,0.99999988079071,0.99999988079071,1],"metallicFactor":0,"roughnessFactor":1}}],"meshes":[{"extras":{"targetNames":[]},"primitives":[{"attributes":{"NORMAL":2,"POSITION":0,"TANGENT":1,"TEXCOORD_0":3},"indices":4,"material":0,"mode":4}]}],"nodes":[{"children":[1],"name":"SpinningCylinder"},{"children":[2],"mesh":0,"name":"CSGCombiner3D2"},{"children":[3],"name":"CSGCylinder3D"},{"name":"CSGCylinder3D2","translation":[-0.02291671931744,-0.23002398014069,0.0614275336265564]}],"scene":0,"scenes":[{"nodes":[0]}]}